Coordinates
version=1
nRows=5
nColumns=40
inDegrees=yes

Units are S.I. units (second, meters, Newtons, ...)
Angles are in degrees.

endheader
time	pelvis_tilt	pelvis_list	pelvis_rotation	pelvis_tx	pelvis_ty	pelvis_tz	hip_flexion_r	hip_adduction_r	hip_rotation_r	knee_angle_r	knee_angle_r_beta	ankle_angle_r	subtalar_angle_r	mtp_angle_r	hip_flexion_l	hip_adduction_l	hip_rotation_l	knee_angle_l	knee_angle_l_beta	ankle_angle_l	subtalar_angle_l	mtp_angle_l	lumbar_extension	lumbar_bending	lumbar_rotation	arm_flex_r	arm_add_r	arm_rot_r	elbow_flex_r	pro_sup_r	wrist_flex_r	wrist_dev_r	arm_flex_l	arm_add_l	arm_rot_l	elbow_flex_l	pro_sup_l	wrist_flex_l	wrist_dev_l
      3.92000000	     -2.55335129	     -4.06850987	      5.62953398	      1.07526971	      0.93320205	      0.49617834	     11.56697296	      2.42994233	    -12.21035017	     16.12557267	     16.12557267	      9.47904898	     -0.55724305	     -5.72959056	     30.45712987	    -11.25363063	      1.68811088	     52.54868683	     52.54868683	     10.84530117	    -17.88907418	     11.67692374	    -11.07494073	      5.73860373	      1.19675098	     19.88635520	    -20.93138106	      0.96201322	     60.95801569	     43.53085131	      0.00000000	      0.00000000	      5.92270694	    -11.29299627	    -12.77855263	     40.78175576	     43.79245363	      0.00000000	      0.00000000
      3.93350000	     -2.78911465	     -4.01880611	      6.05995812	      1.07359908	      0.93320254	      0.49664449	     11.32029073	      2.42531265	    -12.50732531	     15.75977710	     15.75977710	      9.62697588	     -0.56615769	     -5.74062972	     31.65815647	    -11.12516511	      1.29485273	     49.90173522	     49.90173522	     11.01121710	    -17.85863471	     11.78534114	    -10.97144460	      5.60209710	      1.33939564	     21.34780591	    -21.02494532	      0.75320590	     61.98982288	     43.52180166	      0.00000000	      0.00000000	      5.29884751	    -11.43534302	    -12.80010450	     40.21860399	     43.80554305	      0.00000000	      0.00000000
      3.94700000	     -2.80785874	     -4.01387051	      6.56710055	      1.07205458	      0.93347677	      0.49703855	     10.74437815	      2.47949823	    -13.03372443	     15.22255300	     15.22255300	      9.71264474	     -0.19372365	     -5.88231877	     32.33958479	    -10.87672205	      1.16593742	     46.77628879	     46.77628879	     10.82440235	    -18.00408295	     11.41005611	    -11.11843116	      5.59883143	      0.73377588	     22.82573504	    -20.45793578	      0.70663021	     64.32427349	     43.48298416	      0.00000000	      0.00000000	      4.62652212	    -11.90737307	    -12.95520571	     38.62498768	     43.86807602	      0.00000000	      0.00000000
      3.96050000	     -2.96098507	     -4.01045258	      6.95932731	      1.07051730	      0.93344010	      0.49737096	     10.38216010	      2.50446344	    -13.53926661	     14.79819938	     14.79819938	      9.72920790	      0.14908346	     -6.42511377	     32.90347854	    -10.69255750	      0.74000139	     43.31236108	     43.31236108	      9.77623520	    -17.93986340	      9.16600953	    -11.11953508	      5.58228920	      1.47581775	     23.20429999	    -21.15818412	      0.42157622	     67.43329800	     43.54668928	      0.00000000	      0.00000000	      5.33508821	    -11.71469753	    -13.73493361	     35.72010730	     44.20534483	      0.00000000	      0.00000000
      3.97400000	     -3.08221774	     -4.00812284	      7.31887617	      1.06902612	      0.93339184	      0.49762610	     10.01303241	      2.53902022	    -13.96672557	     14.42566374	     14.42566374	      9.85116456	      0.47671373	     -6.64492580	     33.32383195	    -10.36703043	      0.58420912	     39.89017947	     39.89017947	      9.34116918	    -17.59524005	      8.85525030	    -11.15390173	      5.56203144	      1.59685025	     24.40708036	    -21.03068331	     -0.03419233	     69.16257363	     43.64338116	      0.00000000	      0.00000000	      5.11848218	    -11.82197914	    -14.14876604	     34.21613812	     44.44099154	      0.00000000	      0.00000000
